# xmcd CD database file
#
# Track frame offsets:
#	150
#	14720
#	33330
#	50867
#	71870
#	85002
#	97095
#	111457
#	129992
#	149767
#	168167
#	180225
#	191565
#	203200
#
# Disc length: 2937 seconds
#
# Revision: 3
# Processed by: cddbd v1.4PL0 Copyright (c) Steve Scherf et al.
# Submitted via: CDex 1.40Beta8
#
DISCID=d00b770e
DTITLE=Various Artist - Black Magic 2 - CD 2
DYEAR=2002
DGENRE=Black Music
TTITLE0=I Heard It Through The Grapevine (Marvine Gay)
TTITLE1=Lovely Day (Bill Withers)
TTITLE2=Miss You Like Crazy (Natalie Cole)
TTITLE3=Just The Way You Like It (S.O.S. Band)
TTITLE4=Never Can Say Goodbye (Michael Jackson)
TTITLE5=Take A Letter Maria (R. B. Greaves)
TTITLE6=I've Been Loving You Too Long (Otis Redding)
TTITLE7=Critizise (Alexander O' Neal)
TTITLE8=Girl I'm Gonna Miss You (Milli Vanilli)
TTITLE9=Shake You Down (Gregory Abbott)
TTITLE10=I Never loved A Man The Way I Loved You (Aretha Franklin)
TTITLE11=Cry To Me (Solomon Burke)
TTITLE12=Lonely Avenue (Ray Charles)
TTITLE13=Breathless (George McCrae)
EXTD=Dino Music\n1990\n9548-30027 2 YEAR: 2002
EXTT0=
EXTT1=
EXTT2=
EXTT3=
EXTT4=
EXTT5=
EXTT6=
EXTT7=
EXTT8=
EXTT9=
EXTT10=
EXTT11=
EXTT12=
EXTT13=
PLAYORDER=
